<?xml version="1.0" encoding="utf-8"?>
<!-- Generator: Adobe Illustrator 16.0.0, SVG Export Plug-In . SVG Version: 6.00 Build 0)  -->
<!DOCTYPE svg PUBLIC "-//W3C//DTD SVG 1.1//EN" "http://www.w3.org/Graphics/SVG/1.1/DTD/svg11.dtd">
<svg version="1.1" id="Layer_1" xmlns="http://www.w3.org/2000/svg" xmlns:xlink="http://www.w3.org/1999/xlink" x="0px" y="0px"
	 width="410.131px" height="248.481px" viewBox="0 0 410.131 248.481" enable-background="new 0 0 410.131 248.481"
	 xml:space="preserve">
<path fill="#FFFFFF" d="M378.951,147.418c-0.123-0.259-0.288-0.438-0.471-0.562c-0.044-0.029-0.087-0.057-0.133-0.084l0,0
	c-0.285-0.153-0.638-0.189-1.052-0.029c-18.679,7.247-37.312,14.606-55.945,21.971c-1.016,0.401-1.658,2.114-0.351,2.676
	c4.149,1.788,8.296,3.576,12.445,5.364c2.192,0.946,4.385,1.892,6.574,2.838c0.988,0.427,1.702,0.736,2.744,0.325
	c7.777-3.076,15.552-6.15,23.331-9.222c-0.488,10.526-6.483,20.186-15.492,25.66c-9.873,5.998-22.505,5.751-32.397,0
	c-9.87-5.74-15.638-16.674-15.524-27.974c0.117-11.377,6.802-21.77,16.641-27.236c12.81-7.121,29.022-3.822,38.768,6.82
	c0.319,0.349,0.972,0.558,1.426,0.378c4.811-1.914,9.622-3.825,14.431-5.736c0.797-0.317,1.483-1.313,0.876-2.152
	c-13.905-19.195-39.387-26.098-61.045-16.415c-19.794,8.849-31.524,30.806-28.373,52.158c3.165,21.479,20.39,38.702,41.868,41.87
	c21.573,3.183,43.027-8.66,52.16-28.375C385.633,176.308,385.23,160.687,378.951,147.418z"/>
<g>
	<path fill="#06AFBE" d="M187.078,100.462c0.268,0.675,1.001,1.34,1.802,1.022c4.761-1.893,9.524-3.784,14.285-5.676
		c0.676-0.27,1.341-1.002,1.023-1.802c-0.984-2.475-1.969-4.953-2.952-7.43c-0.046-0.116-0.105-0.222-0.173-0.317
		c-0.244-0.609-0.832-1.023-1.63-0.705c-4.762,1.892-9.524,3.786-14.286,5.679c-0.675,0.269-1.34,1.004-1.023,1.802
		C185.11,95.511,186.095,97.987,187.078,100.462z"/>
	<path fill="#06AFBE" d="M294.192,120.188c-16.428-3.287-33.287,1.666-45.242,13.43c-9.608,9.764-14.669,22.846-14.406,36.189
		c-7.52-18.781-15.04-37.567-22.561-56.352c-1.607-4.015-3.215-8.031-4.823-12.046c-0.27-0.674-0.999-1.341-1.802-1.022
		c-4.761,1.891-9.523,3.786-14.286,5.679c-0.674,0.268-1.34,1-1.022,1.802c3.798,9.556,7.596,19.11,11.398,28.666
		c-11.328-12.804-28.86-19.224-46.339-16.15c-21.359,3.757-37.604,21.989-40.141,43.269c-2.562,21.504,10.218,42.847,30.139,51.108
		c10.666,4.423,22.561,4.967,33.618,1.668c5.696-1.699,11.029-4.547,15.737-8.155c2.198-1.686,4.223-3.56,6.116-5.579
		c0.939-1.002,4.639-4.329,4.017-5.891c-2.403-6.046-4.806-12.092-7.208-18.135c-0.525-1.322-2.349-1.461-2.825,0
		c-3.712,11.391-13.34,19.651-25.096,21.787c-11.444,2.075-23.096-2.846-30.311-11.754c-7.296-9.012-8.676-21.908-4.096-32.44
		c4.508-10.369,14.568-17.585,25.749-18.833c13.975-1.562,27.522,6.695,32.879,19.613c0.03,0.072,0.07,0.148,0.112,0.22
		c4.254,10.706,8.51,21.412,12.767,32.119c0.003,0.011,0.009,0.019,0.014,0.03c1.549,3.896,3.098,7.796,4.646,11.689
		c0.269,0.678,1.003,1.345,1.802,1.023c4.172-1.657,8.342-3.317,12.513-4.975c1.84,4.629,3.68,9.258,5.517,13.883
		c0.271,0.678,1.005,1.341,1.805,1.023c4.348-1.727,8.694-3.454,13.043-5.183c1.141,2.869,2.283,5.737,3.423,8.608
		c0.269,0.676,1.001,1.341,1.802,1.022c4.547-1.807,9.09-3.611,13.634-5.42c0.686-0.272,1.329-0.996,1.022-1.801
		c-3.982-10.501-7.966-21-11.949-31.501c-3.019-7.957-1.616-17.163,2.378-24.54c6.144-11.346,18.881-17.407,31.524-16.111
		c0.454,0.046,1.082-0.301,1.264-0.726c2.022-4.688,4.041-9.377,6.065-14.065C295.413,121.537,295.211,120.392,294.192,120.188z"/>
</g>
<g>
	<path fill="#FFFFFF" d="M286.768,230.388c0-0.246,0.086-0.455,0.256-0.626c0.171-0.171,0.38-0.256,0.626-0.256
		c0.247,0,0.455,0.085,0.626,0.256s0.256,0.38,0.256,0.626v1.423c0.626-0.702,1.375-1.247,2.248-1.637
		c0.872-0.388,1.82-0.583,2.845-0.583c0.968,0,1.868,0.181,2.703,0.541c0.834,0.36,1.56,0.854,2.176,1.479
		c0.616,0.625,1.104,1.351,1.466,2.176c0.359,0.825,0.54,1.703,0.54,2.632c0,0.948-0.185,1.84-0.555,2.674
		c-0.37,0.835-0.868,1.565-1.493,2.19c-0.626,0.626-1.352,1.124-2.177,1.494s-1.692,0.555-2.604,0.555
		c-1.062-0.038-2.029-0.308-2.901-0.811c-0.873-0.503-1.622-1.096-2.248-1.778v6.856c0,0.246-0.085,0.455-0.256,0.626
		s-0.379,0.256-0.626,0.256c-0.246,0-0.455-0.085-0.626-0.256c-0.17-0.171-0.256-0.38-0.256-0.626V230.388z M288.531,236.419
		c0.02,0.739,0.171,1.423,0.456,2.048c0.284,0.626,0.654,1.167,1.109,1.622s0.985,0.811,1.593,1.066
		c0.606,0.257,1.252,0.385,1.935,0.385c0.701,0,1.365-0.133,1.991-0.398s1.171-0.631,1.636-1.096c0.465-0.464,0.83-1.01,1.096-1.636
		s0.398-1.289,0.398-1.991c0-0.701-0.133-1.36-0.398-1.978c-0.266-0.616-0.631-1.156-1.096-1.621s-1.01-0.83-1.636-1.096
		s-1.29-0.398-1.991-0.398c-0.683,0-1.328,0.128-1.935,0.385c-0.607,0.256-1.138,0.602-1.593,1.038s-0.825,0.953-1.109,1.551
		c-0.285,0.597-0.437,1.237-0.456,1.92V236.419z"/>
	<path fill="#FFFFFF" d="M301.988,230.388c0-0.246,0.085-0.455,0.256-0.626s0.379-0.256,0.626-0.256
		c0.246,0,0.455,0.085,0.626,0.256s0.256,0.38,0.256,0.626v1.394c0.607-0.683,1.337-1.228,2.19-1.636
		c0.854-0.407,1.783-0.621,2.788-0.64c0.304,0,0.545,0.085,0.726,0.256c0.18,0.171,0.271,0.38,0.271,0.626
		c0,0.247-0.091,0.455-0.271,0.626c-0.181,0.171-0.422,0.256-0.726,0.256c-0.683,0.02-1.318,0.161-1.906,0.427
		s-1.104,0.616-1.55,1.053c-0.446,0.437-0.807,0.948-1.081,1.536c-0.275,0.588-0.423,1.214-0.441,1.878v6.287
		c0,0.247-0.085,0.455-0.256,0.626s-0.38,0.256-0.626,0.256c-0.247,0-0.455-0.085-0.626-0.256s-0.256-0.379-0.256-0.626V230.388z"/>
	<path fill="#FFFFFF" d="M316.128,229.562c0.91,0,1.777,0.185,2.603,0.555s1.551,0.868,2.177,1.494
		c0.626,0.625,1.124,1.355,1.493,2.19c0.37,0.835,0.555,1.726,0.555,2.674c0,0.93-0.181,1.807-0.54,2.632
		c-0.36,0.825-0.85,1.551-1.466,2.176c-0.616,0.626-1.342,1.12-2.176,1.479c-0.835,0.361-1.735,0.541-2.703,0.541
		c-0.948,0-1.835-0.171-2.66-0.513c-0.824-0.341-1.55-0.814-2.176-1.422c-0.626-0.606-1.119-1.327-1.479-2.162
		s-0.54-1.745-0.54-2.731c0-0.948,0.175-1.835,0.525-2.66c0.352-0.825,0.835-1.545,1.451-2.162c0.616-0.616,1.347-1.109,2.19-1.479
		C314.226,229.805,315.142,229.601,316.128,229.562z M310.979,236.476c0,0.702,0.132,1.361,0.398,1.978
		c0.265,0.616,0.63,1.157,1.095,1.621c0.465,0.466,1.005,0.83,1.622,1.096c0.616,0.266,1.275,0.398,1.977,0.398
		c0.702,0,1.366-0.133,1.992-0.398c0.625-0.266,1.171-0.63,1.636-1.096c0.464-0.464,0.829-1.005,1.095-1.621
		s0.398-1.275,0.398-1.978c0-0.701-0.133-1.365-0.398-1.991s-0.631-1.171-1.095-1.636c-0.465-0.465-1.011-0.83-1.636-1.096
		c-0.626-0.265-1.29-0.398-1.992-0.398c-0.701,0-1.36,0.134-1.977,0.398c-0.617,0.266-1.157,0.631-1.622,1.096
		s-0.83,1.01-1.095,1.636C311.11,235.11,310.979,235.774,310.979,236.476z"/>
	<path fill="#FFFFFF" d="M331.376,229.562c1.062,0.038,2.029,0.309,2.901,0.811c0.872,0.503,1.622,1.096,2.248,1.778v-6.116
		c0-0.246,0.085-0.455,0.256-0.626s0.379-0.256,0.626-0.256c0.246,0,0.455,0.085,0.626,0.256s0.256,0.38,0.256,0.626v16.415
		c0,0.247-0.085,0.455-0.256,0.626s-0.38,0.256-0.626,0.256c-0.247,0-0.455-0.085-0.626-0.256s-0.256-0.379-0.256-0.626v-1.337
		l-0.256,0.256c-0.626,0.607-1.356,1.081-2.191,1.422c-0.834,0.342-1.716,0.513-2.646,0.513c-0.967,0-1.868-0.18-2.702-0.541
		c-0.835-0.359-1.561-0.854-2.177-1.479c-0.616-0.625-1.105-1.351-1.465-2.176c-0.36-0.825-0.541-1.702-0.541-2.632
		c0-0.948,0.186-1.839,0.555-2.674c0.37-0.835,0.868-1.565,1.494-2.19c0.626-0.626,1.352-1.124,2.176-1.494
		C329.598,229.747,330.466,229.562,331.376,229.562z M336.525,236.476c-0.038-0.739-0.195-1.422-0.47-2.048
		c-0.275-0.626-0.64-1.167-1.095-1.622c-0.456-0.455-0.986-0.811-1.594-1.066c-0.607-0.257-1.252-0.385-1.935-0.385
		c-0.702,0-1.365,0.134-1.991,0.398c-0.626,0.266-1.171,0.631-1.636,1.096s-0.83,1.01-1.096,1.636s-0.398,1.29-0.398,1.991
		c0,0.702,0.133,1.361,0.398,1.978s0.631,1.157,1.096,1.621c0.465,0.466,1.01,0.83,1.636,1.096s1.289,0.398,1.991,0.398
		c0.701,0,1.361-0.133,1.978-0.398s1.156-0.63,1.621-1.096c0.465-0.464,0.83-1.005,1.096-1.621S336.525,237.178,336.525,236.476z"/>
	<path fill="#FFFFFF" d="M341.021,229.534c0.246,0,0.455,0.085,0.626,0.256c0.17,0.171,0.256,0.38,0.256,0.626v7.795
		c0,0.455,0.09,0.887,0.271,1.295c0.18,0.408,0.421,0.764,0.725,1.066c0.304,0.304,0.659,0.541,1.067,0.711
		c0.407,0.171,0.839,0.257,1.294,0.257s0.882-0.086,1.28-0.257c0.398-0.17,0.744-0.397,1.039-0.683
		c0.293-0.284,0.53-0.621,0.711-1.01c0.18-0.389,0.279-0.801,0.299-1.237v-7.938c0-0.246,0.085-0.455,0.256-0.626
		s0.379-0.256,0.626-0.256c0.246,0,0.455,0.085,0.626,0.256s0.256,0.38,0.256,0.626v12.034c0,0.247-0.085,0.455-0.256,0.626
		s-0.38,0.256-0.626,0.256c-0.247,0-0.455-0.085-0.626-0.256s-0.256-0.379-0.256-0.626v-0.37c-0.437,0.38-0.939,0.683-1.508,0.91
		c-0.569,0.228-1.177,0.342-1.821,0.342c-0.701,0-1.365-0.133-1.991-0.398s-1.171-0.63-1.636-1.095s-0.83-1.011-1.096-1.637
		c-0.266-0.625-0.397-1.289-0.397-1.991v-7.795c0-0.246,0.085-0.455,0.256-0.626S340.773,229.534,341.021,229.534z"/>
	<path fill="#FFFFFF" d="M362.727,232.777c-0.474-0.417-1.015-0.754-1.621-1.01c-0.607-0.256-1.262-0.384-1.963-0.384
		c-0.702,0-1.361,0.133-1.978,0.397c-0.616,0.267-1.157,0.631-1.622,1.096s-0.829,1.01-1.095,1.636s-0.398,1.29-0.398,1.991
		c0,0.702,0.133,1.361,0.398,1.978s0.63,1.157,1.095,1.622s1.006,0.829,1.622,1.095s1.275,0.398,1.978,0.398
		c0.701,0,1.355-0.128,1.963-0.384c0.606-0.257,1.147-0.612,1.621-1.067c0.171-0.171,0.38-0.256,0.626-0.256
		s0.455,0.085,0.626,0.256s0.251,0.384,0.242,0.641c-0.01,0.256-0.119,0.488-0.327,0.696c-0.171,0.171-0.403,0.366-0.697,0.584
		s-0.646,0.422-1.053,0.611c-0.408,0.189-0.863,0.347-1.365,0.47c-0.503,0.123-1.049,0.185-1.636,0.185
		c-0.949,0-1.835-0.171-2.66-0.512c-0.825-0.342-1.551-0.815-2.177-1.423c-0.626-0.606-1.119-1.327-1.479-2.162
		c-0.36-0.834-0.54-1.745-0.54-2.731c0-0.948,0.175-1.835,0.526-2.66c0.351-0.824,0.834-1.545,1.45-2.162
		c0.616-0.615,1.347-1.109,2.191-1.479c0.844-0.37,1.759-0.574,2.745-0.612c0.569,0,1.095,0.071,1.579,0.214
		c0.483,0.142,0.919,0.312,1.309,0.512c0.389,0.199,0.734,0.412,1.038,0.641c0.304,0.228,0.55,0.427,0.74,0.597
		c0.113,0.096,0.213,0.271,0.298,0.526c0.086,0.256,0.024,0.489-0.185,0.697c-0.171,0.171-0.38,0.256-0.626,0.256
		S362.897,232.948,362.727,232.777z"/>
	<path fill="#FFFFFF" d="M368.302,231.27h-1.896c-0.249,0-0.46-0.085-0.633-0.256c-0.172-0.171-0.258-0.379-0.258-0.626
		c0-0.246,0.086-0.455,0.258-0.626c0.173-0.171,0.384-0.256,0.633-0.256h1.896v-3.471c0-0.246,0.084-0.455,0.252-0.626
		s0.373-0.256,0.616-0.256s0.447,0.085,0.615,0.256s0.253,0.38,0.253,0.626v3.471h1.896c0.249,0,0.46,0.085,0.633,0.256
		c0.172,0.171,0.258,0.38,0.258,0.626c0,0.247-0.085,0.455-0.256,0.626s-0.379,0.256-0.626,0.256h-1.877v11.181
		c0,0.247-0.086,0.455-0.257,0.626c-0.17,0.171-0.379,0.256-0.625,0.256c-0.247,0-0.456-0.085-0.626-0.256
		c-0.171-0.171-0.257-0.379-0.257-0.626V231.27z"/>
	<path fill="#FFFFFF" d="M381.701,232.294c-0.152-0.36-0.479-0.631-0.981-0.812c-0.503-0.18-1.058-0.27-1.664-0.27
		c-0.323,0-0.65,0.023-0.981,0.071c-0.332,0.047-0.631,0.142-0.896,0.284s-0.488,0.337-0.668,0.583
		c-0.181,0.247-0.271,0.569-0.271,0.968c0,0.284,0.09,0.531,0.271,0.739c0.18,0.209,0.407,0.384,0.683,0.526
		c0.274,0.143,0.578,0.252,0.91,0.327c0.332,0.076,0.649,0.143,0.953,0.199c0.701,0.113,1.36,0.28,1.978,0.498
		c0.615,0.218,1.156,0.498,1.621,0.839c0.465,0.342,0.834,0.75,1.109,1.224s0.413,1.024,0.413,1.649c0,0.626-0.133,1.2-0.398,1.722
		s-0.631,0.967-1.096,1.337s-1.01,0.654-1.636,0.854s-1.29,0.299-1.991,0.299c-1.195,0-2.243-0.274-3.144-0.825
		c-0.901-0.55-1.504-1.309-1.807-2.275c-0.076-0.247-0.057-0.484,0.057-0.712c0.114-0.228,0.304-0.379,0.569-0.455
		c0.246-0.075,0.479-0.047,0.697,0.086c0.218,0.133,0.374,0.322,0.469,0.568c0.246,0.607,0.669,1.067,1.267,1.38
		c0.597,0.313,1.228,0.47,1.892,0.47c0.929,0,1.721-0.214,2.375-0.641s0.981-1.028,0.981-1.807c0-0.625-0.322-1.156-0.967-1.593
		c-0.646-0.436-1.441-0.721-2.39-0.854c-1.365-0.189-2.471-0.564-3.314-1.124c-0.844-0.559-1.266-1.37-1.266-2.432
		c0-0.664,0.132-1.224,0.397-1.679s0.616-0.825,1.053-1.109c0.437-0.285,0.93-0.488,1.479-0.612c0.55-0.123,1.1-0.185,1.65-0.185
		c0.455,0,0.905,0.043,1.352,0.128c0.445,0.085,0.857,0.209,1.237,0.37c0.379,0.161,0.716,0.365,1.01,0.611
		c0.294,0.247,0.517,0.541,0.669,0.882c0.132,0.247,0.16,0.508,0.085,0.782c-0.076,0.275-0.275,0.46-0.598,0.555
		c-0.246,0.096-0.465,0.081-0.654-0.042S381.815,232.521,381.701,232.294z"/>
</g>
<path fill="#06AFBE" d="M35.147,107.677c22.622-37.354,57.769-70.11,101.79-90.021c17.486-7.909,36.46-14.11,56.179-16.471
	c21.524-2.58,44.281-0.765,65.306,3.684c46.48,9.833,85.362,35.135,110.26,69.608c31.285,43.32,41.322,95.165,41.449,145.243
	c0.002,0.462-0.456,0.848-1.002,0.848c-0.708,0-1.416,0-2.123,0c-0.048,0-0.1,0-0.146,0c-0.051,0-0.102,0-0.153,0
	c-0.558,0-0.992-0.386-1.005-0.848c-0.332-12.462-1.642-24.991-3.957-37.408c-6.39-31.321-20.082-61.711-42.643-87.124
	c-26.329-29.661-64.87-51.696-109.868-51.948c-44.956,0.252-83.711,22.677-108.836,53.136
	c-29.633,35.925-42.749,79.943-43.907,123.344c-0.014,0.462-0.447,0.848-1.004,0.848c-6.21,0-13.355,0-19.565,0
	c-0.543,0-1.004-0.386-1-0.848c0.014-3.761,0.106-7.52,0.257-11.278c2.098-51.592,21.159-99.429,61.085-136.322
	C164.56,45.977,207.906,28.64,250.815,29.34c6.605,0.108,6.954,0.345,14.796,1.205c2,0.217,1.646-1.323-0.19-1.652
	c-10.854-1.95-16.848-2.201-25.722-1.792c-48.537,2.237-91.813,24.546-120.276,56.745c-34.442,38.956-48.094,86.26-51.079,135.875
	c-0.024,0.461-0.453,0.848-1.003,0.848c-7.881,0-18.573,0-26.456,0c-0.545,0-1.004-0.386-1.004-0.848
	c0.077-20.528,4.75-40.216,10.313-60.22c12.328-44.319,41.018-87.319,83.951-115.66c16.445-10.854,39.314-20.683,59.736-24.866
	c16.577-3.396,33.151-3.952,33.828-4.249c0.617-0.27,0.519-1.007-0.062-1.146c-1.792-0.435-4.989-0.204-4.989-0.204
	c-52.619,0.269-99.219,28.18-130.205,62.689c-36.872,41.067-54.809,91.39-58.511,143.656c-0.034,0.461-0.456,0.848-1.006,0.848
	c-10.019,0-21.914,0-31.936,0c-0.545,0-1.003-0.386-1.001-0.848C0.146,181.037,14.212,142.248,35.147,107.677z"/>
</svg>
